HIERARCHY
ROOT Hips
{
    OFFSET 0.000000 0.000000 0.000000
    CHANNELS 6 Xposition Yposition Zposition Zrotation Xrotation Yrotation
        JOINT Chest
        {
            OFFSET -0.000000 31.599348 -0.000000
            CHANNELS 3 Zrotation Xrotation Yrotation
            JOINT Neck
            {
                OFFSET -0.000000 23.422918 0.000000
                CHANNELS 3 Zrotation Xrotation Yrotation
                JOINT Head
                {
                    OFFSET -0.000000 10.877777 0.000000
                    CHANNELS 3 Zrotation Xrotation Yrotation
                    End Site
                    {
                        OFFSET -0.000000 16.811113 0.000000
                    }
                }
            }
            JOINT LeftCollar
            {
                OFFSET -0.000000 23.422918 0.000000
                CHANNELS 3 Zrotation Xrotation Yrotation
                JOINT LeftShoulder
                {
                    OFFSET 22.500000 -0.000000 0.000000
                    CHANNELS 3 Zrotation Xrotation Yrotation
                    JOINT LeftElbow
                    {
                        OFFSET 26.183765 0.000000 0.000000
                        CHANNELS 3 Zrotation Xrotation Yrotation
                        JOINT LeftWrist
                        {
                            OFFSET 21.121546 0.000000 0.000000
                            CHANNELS 3 Zrotation Xrotation Yrotation
                            End Site
                            {
                                OFFSET 14.833334 0.000000 0.000000
                            }
                        }
                    }
                }
            }
            JOINT RightCollar
            {
                OFFSET -0.000000 23.422918 0.000000
                CHANNELS 3 Zrotation Xrotation Yrotation
                JOINT RightShoulder
                {
                    OFFSET -22.500000 0.000000 0.000000
                    CHANNELS 3 Zrotation Xrotation Yrotation
                    JOINT RightElbow
                    {
                        OFFSET -26.183765 0.000000 0.000000
                        CHANNELS 3 Zrotation Xrotation Yrotation
                        JOINT RightWrist
                        {
                            OFFSET -21.121546 0.000000 0.000000
                            CHANNELS 3 Zrotation Xrotation Yrotation
                            End Site
                            {
                                OFFSET -14.833334 0.000000 0.000000
                            }
                        }
                    }
                }
            }
        }
    JOINT LeftHip
    {
        OFFSET 11.866667 0.000000 0.000000
        CHANNELS 3 Zrotation Xrotation Yrotation
        JOINT LeftKnee
        {
            OFFSET -0.000000 -43.651608 0.000000
            CHANNELS 3 Zrotation Xrotation Yrotation
            JOINT LeftAnkle
            {
                OFFSET -0.000000 -37.563271 0.000000
                CHANNELS 3 Zrotation Xrotation Yrotation
                End Site
                {
                    OFFSET -0.000000 -4.944445 16.811113
                }
            }
        }
    }
    JOINT RightHip
    {
        OFFSET -11.866667 0.000000 0.000000
        CHANNELS 3 Zrotation Xrotation Yrotation
        JOINT RightKnee
        {
            OFFSET -0.000000 -43.651608 0.000000
            CHANNELS 3 Zrotation Xrotation Yrotation
            JOINT RightAnkle
            {
                OFFSET -0.000000 -37.563271 0.000000
                CHANNELS 3 Zrotation Xrotation Yrotation
                End Site
                {
                    OFFSET -0.000000 -4.944445 16.811113
                }
            }
        }
    }
}
MOTION
Frames:    12
Frame Time:    0.010000
18.323908    94.041183    44.416416    -0.185779    -1.564655    5.885108    -2.489875    7.689784    1.931309    5.694066    8.715103    -1.347678    -6.438407    -16.907633    -1.910536    -6.329676    -0.310110    5.960888    9.117413    8.263749    -7.909957    27.541443    -5.889126    -23.815340    -16.503075    -1.097899    -6.973345    13.802505    -1.813409    -14.899174    -5.684477    8.508444    5.749122    -44.306168    -8.233218    19.983618    29.457771    -9.957523    10.324420    -0.522867    1.436852    0.697301    1.351828    13.422060    -1.116251    -0.428073    -13.081227    21.295431    0.069982    0.958083    -0.317059    -1.755982    16.060436    22.799126    -2.599930    -14.312685    -49.850449    
18.323904    94.041191    44.416401    -0.185802    -1.564579    5.885099    -2.423548    7.755379    1.928754    5.725509    8.321869    -1.738829    -6.578480    -16.597708    -2.300901    -6.361961    -0.278847    5.235258    9.128007    8.209620    -8.003393    27.327766    -5.856248    -23.927279    -15.829953    -0.597761    -6.672833    13.815833    -1.878602    -15.782794    -5.687006    8.256558    5.851450    -44.367477    -8.213145    19.900400    29.512505    -9.945348    10.402043    -0.522851    1.436757    0.697319    1.351833    13.422082    -1.116302    -0.428045    -13.081208    21.295467    0.070001    0.957990    -0.317026    -1.755977    16.060442    22.799053    -2.579582    -14.350071    -49.851234    
18.573214    94.055367    44.120888    -0.375446    -1.445420    5.487756    -2.433195    7.884884    2.119591    6.426129    8.369350    -1.709565    -7.185168    -16.939632    -2.302559    -6.300747    -0.301179    5.531431    9.044530    8.285932    -8.069970    27.860283    -6.114820    -24.271130    -16.222511    -1.321604    -6.079887    14.073709    -2.002791    -16.169617    -5.925405    9.107947    7.052161    -44.457176    -7.994499    18.851612    28.883698    -10.786299    11.230503    -0.447721    1.219267    0.597934    1.087602    13.333197    -0.622492    -0.219349    -13.037425    21.251083    0.079492    0.439417    0.130032    -1.788229    16.322044    22.438377    -2.242738    -14.254402    -49.506779    
18.723036    94.068840    43.960773    -0.491495    -1.371022    5.275432    -2.369595    7.946063    2.245495    6.638854    8.262277    -1.745587    -7.315616    -16.981895    -2.358492    -6.355166    -0.334579    5.574754    9.010002    8.348190    -8.107025    28.042189    -6.234636    -24.604145    -16.007849    -1.544125    -5.689664    14.210918    -2.078625    -16.457687    -6.049075    9.418712    7.551535    -44.549427    -7.811398    18.455404    28.481234    -11.542811    11.686100    -0.411364    1.095579    0.604348    0.983986    13.272146    -0.423690    -0.120042    -13.000720    21.229355    0.065305    0.148903    0.325166    -1.768530    16.471254    22.406019    -2.143547    -14.161012    -49.416222    
18.896685    94.086670    43.773628    -0.630924    -1.270486    5.032365    -2.274829    7.991026    2.384390    6.796233    8.161489    -1.755451    -7.409696    -16.995893    -2.378470    -6.461523    -0.310608    5.658211    8.972178    8.364089    -8.100006    28.224409    -6.367226    -25.077509    -15.670748    -1.786417    -5.344185    14.383474    -2.088643    -16.674160    -6.174634    9.636357    7.977003    -44.593136    -7.668409    18.224945    27.963886    -12.421198    12.065379    -0.374343    0.921742    0.674586    0.902442    13.232917    -0.278573    -0.012733    -12.962143    21.216995    0.045903    -0.208258    0.509406    -1.738771    16.659416    22.457733    -2.091858    -14.033835    -49.344261    
19.080521    94.107765    43.568428    -0.784774    -1.147354    4.775136    -2.145643    8.026115    2.506760    6.875246    8.058576    -1.763229    -7.433267    -17.008741    -2.387460    -6.604054    -0.352939    5.733039    8.912157    8.459679    -8.087747    28.549393    -6.563394    -25.456520    -15.297185    -2.130994    -5.189757    14.531645    -2.174555    -16.846182    -6.224601    9.857977    8.360220    -44.791424    -7.571332    17.903688    27.457050    -13.387486    12.479516    -0.340545    0.694965    0.794163    0.851341    13.238081    -0.196708    0.098488    -12.927008    21.225132    0.023559    -0.621279    0.683230    -1.697485    16.895203    22.582731    -2.085305    -13.917562    -49.299984    
19.262569    94.130730    43.355026    -0.940943    -1.015119    4.518522    -1.988188    8.062106    2.588175    6.865772    7.979104    -1.750218    -7.394121    -17.043655    -2.378619    -6.783054    -0.342918    5.814211    8.839017    8.533998    -8.009010    28.840065    -6.756250    -25.984262    -14.879814    -2.512602    -5.108205    14.679317    -2.190129    -16.938541    -6.249527    9.991201    8.605510    -44.882103    -7.517225    17.911720    26.784111    -14.462648    12.664943    -0.313175    0.432733    0.916694    0.821968    13.288225    -0.137940    0.208773    -12.893919    21.252899    -0.001546    -1.070195    0.861580    -1.643714    17.193651    22.747879    -2.094619    -13.881999    -49.290192    
19.434513    94.153961    43.143082    -1.087407    -0.894368    4.271711    -1.814372    8.112648    2.624560    6.784272    7.936845    -1.719212    -7.308251    -17.115488    -2.349889    -6.981630    -0.328830    5.891420    8.736406    8.633306    -7.875026    29.206228    -6.993774    -26.490179    -14.533371    -3.071592    -5.190924    14.805959    -2.192891    -16.972343    -6.205666    10.113919    8.809075    -45.063450    -7.520334    17.916019    26.126696    -15.579647    12.834503    -0.293543    0.168407    1.000515    0.797745    13.365252    -0.052026    0.312120    -12.858266    21.289146    -0.030757    -1.526818    1.068133    -1.572634    17.567940    22.898909    -2.087155    -13.993999    -49.314564    
19.591909    94.175720    42.939747    -1.216337    -0.804491    4.038857    -1.639542    8.190824    2.632701    6.666288    7.936583    -1.671191    -7.202045    -17.228138    -2.295932    -7.179165    -0.389121    5.966559    8.605448    8.829953    -7.706856    29.662756    -7.266021    -26.934341    -14.329226    -3.897871    -5.503989    14.909775    -2.260392    -16.987305    -6.135459    10.352929    9.052993    -45.355061    -7.544615    17.827808    25.520241    -16.763369    13.060863    -0.279879    -0.065408    1.037862    0.765873    13.447891    0.082233    0.405964    -12.816940    21.317757    -0.065889    -1.964714    1.322087    -1.470001    18.028397    22.972216    -2.053904    -14.291176    -49.363804    
19.733370    94.194412    42.747459    -1.326102    -0.754142    3.820896    -1.476172    8.306857    2.638966    6.549458    7.950520    -1.610686    -7.100204    -17.362551    -2.236840    -7.378582    -0.390190    6.033817    8.465777    8.988184    -7.493376    30.036270    -7.515473    -27.520206    -14.213432    -4.893347    -5.946547    15.062682    -2.271319    -17.045162    -6.147827    10.630865    9.332554    -45.551586    -7.565818    17.889406    24.837442    -18.034460    13.222840    -0.267291    -0.253606    1.053589    0.720476    13.523628    0.259092    0.493741    -12.769381    21.316309    -0.107577    -2.374422    1.623014    -1.316163    18.590071    22.921844    -2.021794    -14.764962    -49.417431    
19.859865    94.209000    42.564808    -1.419455    -0.740809    3.616718    -1.332188    8.464110    2.665886    6.459776    7.939707    -1.554819    -7.008427    -17.489815    -2.181988    -7.565036    -0.410003    6.097991    8.308654    9.170538    -7.317245    30.479403    -7.791273    -27.984915    -14.231357    -6.059083    -6.551011    15.257151    -2.310441    -17.176916    -6.212930    10.999919    9.728240    -45.832703    -7.604584    17.786873    24.225374    -19.355219    13.496605    -0.249787    -0.398860    1.079677    0.658106    13.590636    0.466286    0.583062    -12.717910    21.264225    -0.154905    -2.764416    1.945628    -1.095518    19.275043    22.738495    -2.045396    -15.360613    -49.442234    
19.974310    94.218971    42.389400    -1.498936    -0.758156    3.424424    -1.212349    8.659467    2.724274    6.408833    7.881406    -1.517293    -6.925273    -17.587711    -2.147123    -7.744048    -0.409322    6.155509    8.158107    9.342562    -7.188968    30.927214    -7.997498    -28.441774    -14.293295    -7.290871    -7.149200    15.472256    -2.413179    -17.381104    -6.308915    11.450652    10.202166    -46.158150    -7.627157    17.629395    23.656532    -20.745611    13.832014    -0.225015    -0.510033    1.132536    0.576866    13.654991    0.685513    0.680901    -12.669477    21.163137    -0.207906    -3.147006    2.239654    -0.802870    20.102926    22.450882    -2.190691    -15.991924    -49.398987    
